<svg width="32" height="32" viewBox="0 0 32 32" fill="none" xmlns="http://www.w3.org/2000/svg">
<path d="M14.4149 6.51172H21.3284C24.6698 6.51172 27.3861 9.22056 27.3861 12.5694V18.5154H14.4224C11.1107 18.5154 8.42423 15.8289 8.42423 12.5173C8.40934 9.19823 11.0959 6.51172 14.4149 6.51172Z" fill="#EECA66"/>
<g style="mix-blend-mode:multiply" opacity="0.5">
<path d="M25.4952 18.5153H14.4224C11.1143 18.5153 8.43003 15.8346 8.42422 12.5279C9.10714 12.313 9.81895 12.2039 10.5349 12.2046H18.5662C22.1902 12.2046 25.1651 14.9707 25.4952 18.5153Z" fill="#EECA66"/>
</g>
<path d="M14.4149 6.51172H21.3284C24.6698 6.51172 27.3861 9.22056 27.3861 12.5694V18.5154H14.4224C11.1107 18.5154 8.42423 15.8289 8.42423 12.5173C8.40934 9.19823 11.0959 6.51172 14.4149 6.51172Z" stroke="#121331" stroke-width="0.52093" stroke-miterlimit="10" stroke-linecap="round" stroke-linejoin="round"/>
<path d="M17.6595 13.5813H10.7461C7.40466 13.5813 4.68839 16.2901 4.68839 19.639V25.585H17.6521C20.9637 25.585 23.6502 22.8985 23.6502 19.5869C23.6651 16.2678 20.9786 13.5813 17.6595 13.5813Z" fill="#9CF4A7"/>
<g style="mix-blend-mode:multiply" opacity="0.5">
<path d="M5.4802 16.6426C5.44835 16.896 5.43245 17.1511 5.43257 17.4065C5.43257 20.6904 8.09467 23.3525 11.3786 23.3525H18.3963C20.6249 23.3525 22.5704 22.1359 23.6046 20.3308C23.238 23.2917 20.7118 25.5851 17.6521 25.5851H4.68839V19.639C4.68839 18.5485 4.97638 17.5259 5.4802 16.6426Z" fill="#9CF4A7"/>
</g>
<path d="M17.6595 13.5813H10.7461C7.40466 13.5813 4.68839 16.2901 4.68839 19.639V25.585H17.6521C20.9637 25.585 23.6502 22.8985 23.6502 19.5869C23.6651 16.2678 20.9786 13.5813 17.6595 13.5813Z" stroke="#121331" stroke-width="0.52093" stroke-miterlimit="10" stroke-linecap="round" stroke-linejoin="round"/>
</svg>
