<svg width="32" height="32" viewBox="0 0 32 32" fill="none" xmlns="http://www.w3.org/2000/svg">
<g clip-path="url(#clip0_279_2155)">
<g clip-path="url(#clip1_279_2155)">
<mask id="mask0_279_2155" style="mask-type:luminance" maskUnits="userSpaceOnUse" x="0" y="0" width="32" height="32">
<path d="M0 0H32V32H0V0Z" fill="white"/>
</mask>
<g mask="url(#mask0_279_2155)">
<mask id="mask1_279_2155" style="mask-type:luminance" maskUnits="userSpaceOnUse" x="0" y="0" width="32" height="32">
<path d="M0 0H32V32H0V0Z" fill="white"/>
</mask>
<g mask="url(#mask1_279_2155)">
<mask id="mask2_279_2155" style="mask-type:luminance" maskUnits="userSpaceOnUse" x="0" y="0" width="32" height="32">
<path d="M0 0H32V32H0V0Z" fill="white"/>
</mask>
<g mask="url(#mask2_279_2155)">
<path d="M23.7444 5.41608L23.7393 10.6916L20.1511 7.61813L20.1572 5.41608C20.1572 5.33713 20.1886 5.26142 20.2444 5.2056C20.3003 5.14977 20.376 5.11841 20.4549 5.11841H23.4467C23.5256 5.11841 23.6014 5.14977 23.6572 5.2056C23.713 5.26142 23.7444 5.33713 23.7444 5.41608Z" fill="#393346"/>
<path d="M23.7444 5.41608L23.7393 10.6916L20.1511 7.61813L20.1572 5.41608C20.1572 5.33713 20.1886 5.26142 20.2444 5.2056C20.3003 5.14977 20.376 5.11841 20.4549 5.11841H23.4467C23.5256 5.11841 23.6014 5.14977 23.6572 5.2056C23.713 5.26142 23.7444 5.33713 23.7444 5.41608Z" stroke="#393346"/>
<path d="M23.7444 5.12325L23.7393 10.6916L20.1511 7.61813L20.1573 5.13478C20.1573 5.13045 20.159 5.1263 20.162 5.12323C20.1651 5.12016 20.1692 5.11843 20.1736 5.11841H23.7395C23.7408 5.11844 23.742 5.11895 23.743 5.11982C23.7438 5.12075 23.7443 5.12197 23.7444 5.12325Z" stroke="#121330" stroke-linecap="round" stroke-linejoin="round"/>
<path d="M6.24148 27.6532V14.2363L16.1488 5.23535L26.0557 14.2239L26.0562 14.2244V27.6532C26.0562 27.7322 26.0248 27.8079 25.969 27.8637C25.9132 27.9195 25.8375 27.9509 25.7585 27.9509H6.53916C6.46021 27.9509 6.3845 27.9195 6.32867 27.8637C6.27285 27.8079 6.24148 27.7322 6.24148 27.6532Z" fill="#EBE6EE"/>
<path d="M6.24148 27.6532V14.2363L16.1488 5.23535L26.0557 14.2239L26.0562 14.2244V27.6532C26.0562 27.7322 26.0248 27.8079 25.969 27.8637C25.9132 27.9195 25.8375 27.9509 25.7585 27.9509H6.53916C6.46021 27.9509 6.3845 27.9195 6.32867 27.8637C6.27285 27.8079 6.24148 27.7322 6.24148 27.6532Z" stroke="#121330" stroke-linecap="round" stroke-linejoin="round"/>
<path d="M16 6.23107L4.88857 16.3163C4.85967 16.3431 4.82573 16.3639 4.78871 16.3775C4.7517 16.3911 4.71235 16.3973 4.67295 16.3955C4.63356 16.3938 4.5949 16.3843 4.55922 16.3675C4.52354 16.3507 4.49156 16.3269 4.46512 16.2977L3.6175 15.3593C3.59118 15.3303 3.57083 15.2965 3.5576 15.2597C3.54436 15.2229 3.53851 15.1839 3.54038 15.1449C3.54224 15.1058 3.55179 15.0675 3.56847 15.0321C3.58515 14.9968 3.60864 14.9651 3.63759 14.9388L15.3734 4.28577C15.5446 4.13061 15.7674 4.04468 15.9985 4.04468C16.2296 4.04468 16.4524 4.13061 16.6236 4.28577L28.3624 14.9366C28.4208 14.9897 28.4558 15.0638 28.4595 15.1426C28.4633 15.2215 28.4356 15.2986 28.3825 15.357L27.5349 16.2977C27.5083 16.3267 27.4763 16.3501 27.4406 16.3667C27.4049 16.3832 27.3663 16.3925 27.327 16.394C27.2877 16.3956 27.2484 16.3893 27.2116 16.3755C27.1747 16.3618 27.1409 16.3409 27.1122 16.314L16 6.23107Z" fill="#F14B00"/>
<path d="M16 6.23107L4.88857 16.3163C4.85967 16.3431 4.82573 16.3639 4.78871 16.3775C4.7517 16.3911 4.71235 16.3973 4.67295 16.3955C4.63356 16.3938 4.5949 16.3843 4.55922 16.3675C4.52354 16.3507 4.49156 16.3269 4.46512 16.2977L3.6175 15.3593C3.59118 15.3303 3.57083 15.2965 3.5576 15.2597C3.54436 15.2229 3.53851 15.1839 3.54038 15.1449C3.54224 15.1058 3.55179 15.0675 3.56847 15.0321C3.58515 14.9968 3.60864 14.9651 3.63759 14.9388L15.3734 4.28577C15.5446 4.13061 15.7674 4.04468 15.9985 4.04468C16.2296 4.04468 16.4524 4.13061 16.6236 4.28577L28.3624 14.9366C28.4208 14.9897 28.4558 15.0638 28.4595 15.1426C28.4633 15.2215 28.4356 15.2986 28.3825 15.357L27.5349 16.2977C27.5083 16.3267 27.4763 16.3501 27.4406 16.3667C27.4049 16.3832 27.3663 16.3925 27.327 16.394C27.2877 16.3956 27.2484 16.3893 27.2116 16.3755C27.1747 16.3618 27.1409 16.3409 27.1122 16.314L16 6.23107Z" stroke="#121330" stroke-linecap="round" stroke-linejoin="round"/>
<path d="M12.5842 17.7227V27.9509H19.4158V17.7414C19.4158 17.7335 19.4127 17.726 19.4071 17.7204C19.4015 17.7148 19.394 17.7117 19.3861 17.7117H12.5952C12.5923 17.7117 12.5895 17.7128 12.5874 17.7149C12.5853 17.717 12.5842 17.7198 12.5842 17.7227Z" fill="#B16836"/>
<g style="mix-blend-mode:multiply" opacity="0.5">
<path d="M12.5954 17.7117H14.0904V27.9509H12.5887L12.5844 17.7227C12.5844 17.7198 12.5855 17.717 12.5876 17.7149C12.5896 17.7128 12.5924 17.7117 12.5954 17.7117Z" fill="#B16836"/>
</g>
<path d="M12.5842 17.7227V27.9509H19.4158V17.7414C19.4158 17.7335 19.4127 17.726 19.4071 17.7204C19.4015 17.7148 19.394 17.7117 19.3861 17.7117H12.5952C12.5923 17.7117 12.5895 17.7128 12.5874 17.7149C12.5853 17.717 12.5842 17.7198 12.5842 17.7227Z" stroke="#121330" stroke-linecap="round" stroke-linejoin="round"/>
</g>
</g>
</g>
</g>
</g>
<defs>
<clipPath id="clip0_279_2155">
<rect width="32" height="32" fill="white"/>
</clipPath>
<clipPath id="clip1_279_2155">
<rect width="32" height="32" fill="white"/>
</clipPath>
</defs>
</svg>
