<svg width="190" height="179" viewBox="0 0 190 179" fill="none" xmlns="http://www.w3.org/2000/svg">
<path d="M22.3816 187.337C24.91 187.337 33.571 189.361 37.8665 185.656C40.1854 183.654 41.5055 179.851 42.4135 175.205C43.0351 172.023 43.4682 168.451 43.9012 164.789C43.9571 164.286 45.6823 155.747 46.6671 150.696C47.0513 148.707 47.3237 147.27 47.3307 147.054C47.3796 146.168 47.163 145.233 46.723 144.27C44.3552 139.023 35.6384 133.323 31.4756 134.14C31.4756 134.14 31.4546 134.14 31.4476 134.14C23.8554 135.675 23.0382 151.763 21.2711 156.751C21.1314 157.142 21.0056 157.547 20.8939 157.944C20.8939 157.965 20.8799 157.993 20.8729 158.028C20.7332 158.551 20.5866 159.228 20.4469 160.03C20.4329 160.065 20.4259 160.086 20.4259 160.121C20.2094 161.377 19.9929 162.912 19.8043 164.614C18.8125 173.656 18.589 187.323 22.3816 187.323V187.337Z" fill="#F5A20A"/>
<path d="M22.3818 187.337C24.9102 187.337 33.5711 189.36 37.8667 185.655C40.1856 183.653 41.5056 179.851 42.4136 175.204C43.0353 172.023 43.4683 168.451 43.9014 164.788C43.9572 164.286 45.6824 155.746 46.6673 150.695L46.7232 144.276C43.5032 139.839 36.9726 135.688 31.4757 134.146C31.4757 134.146 31.4548 134.146 31.4478 134.146C23.8555 135.681 23.0383 151.769 21.2712 156.758C21.1315 157.148 21.0058 157.553 20.894 157.951C20.894 157.972 20.8801 157.999 20.8731 158.034C20.8032 158.306 20.6566 159.011 20.447 160.037C20.4331 160.072 20.4261 160.093 20.4261 160.127C20.2095 161.383 19.993 162.918 19.8044 164.62C18.8126 173.662 18.5891 187.33 22.3818 187.33V187.337Z" fill="#D17100"/>
<path d="M34.8277 122.083C22.9818 127.463 18.5047 157.372 19.9435 160.616C34.702 167.042 56.04 161.125 56.4032 159.89C58.2541 150.967 62.6963 127.728 54.3567 122.69C48.7061 119.279 39.696 120.032 34.8277 122.09V122.083Z" fill="#FCEAAC"/>
<path d="M41.9883 161.027C43.476 154.462 47.129 144.757 51.1661 134.494C47.8344 144.632 44.9986 154.211 43.9998 161.718L41.9883 161.027Z" fill="#F3DBB7"/>
<path d="M112.456 191.551C102.496 194.405 91.9704 195.932 81.0884 195.932C67.2379 195.932 53.9671 193.456 41.6952 188.921C41.8977 186.395 42.2819 183.549 42.3377 182.725C42.6241 178.232 42.7708 173.572 43.2108 169.114C44.4261 156.925 46.6892 142.818 51.1803 131.418C52.3537 128.418 53.9112 126.486 54.3513 123.221C55.3082 123.514 55.8739 124.246 56.6353 124.867C67.65 133.944 84.6156 130.714 94.89 122.118L97.2228 119.286C102.266 118.805 112.142 123.639 110.249 125.718C104.983 151.595 106.938 152.405 107.916 162.821C108.65 163.302 111.052 180.228 111.932 180.228C112.331 183.312 112.345 188.028 112.456 191.551Z" fill="#FCEAAC"/>
<path d="M127.218 186.89C125.478 188.3 117.299 188.963 113.493 185.16C111.439 183.102 110.266 179.195 109.463 174.43C108.911 171.165 108.527 167.495 108.143 163.735C108.094 163.225 106.564 154.449 105.691 149.265C105.349 147.221 105.111 145.742 105.097 145.525C105.048 144.618 105.244 143.656 105.635 142.665C107.737 137.279 115.462 131.425 119.15 132.263C119.15 132.263 119.164 132.263 119.171 132.263C125.904 133.839 126.624 150.353 128.188 155.481C128.314 155.879 128.426 156.297 128.524 156.709C128.524 156.73 128.538 156.765 128.538 156.793C128.663 157.33 128.796 158.028 128.915 158.851C128.929 158.886 128.929 158.907 128.929 158.942C129.124 160.232 129.313 161.802 129.481 163.56C130.361 172.846 130.179 184.463 127.197 186.877L127.218 186.89Z" fill="#F5A20A"/>
<path d="M127.216 186.89C125.456 188.278 117.298 188.962 113.491 185.16C111.438 183.102 110.264 179.195 109.461 174.43C108.909 171.164 108.525 167.495 108.141 163.734C108.092 163.225 106.563 154.448 105.69 149.264L105.641 142.671C108.497 138.116 114.288 133.853 119.156 132.269C119.156 132.269 119.17 132.269 119.177 132.269C125.91 133.846 126.629 150.36 128.194 155.488C128.32 155.885 128.431 156.304 128.529 156.716C128.529 156.736 128.543 156.771 128.543 156.799C128.606 157.078 128.739 157.804 128.92 158.857C128.934 158.892 128.934 158.913 128.934 158.948C129.13 160.239 129.318 161.809 129.486 163.567C130.366 172.853 130.157 184.56 127.202 186.883L127.216 186.89Z" fill="#D17100"/>
<path d="M100.375 119.865C124.437 114.137 128.928 145.148 130.304 156.855C112.85 156.172 113.89 163.141 106.955 163.19C106.368 162.82 104.803 157.427 104.503 156.416C101.981 147.862 98.7406 139.26 99.2435 137.272C101.395 128.662 99.2924 120.123 100.382 119.865H100.375Z" fill="#FCEAAC"/>
<path d="M124.512 164.189L108.566 166.282C108.566 166.282 112.282 164.279 116.263 163.965C120.496 163.638 124.519 164.182 124.519 164.182L124.512 164.189Z" fill="#D17100"/>
<path d="M109.033 128.397C119.293 144.945 122.877 159.129 125.999 168.213C128.136 174.429 128.29 187.692 125.105 188.041C122.213 188.355 116.611 192.541 107.203 181.155C103.788 177.024 99.1917 165.869 97.5433 155.711C96.9008 149.285 95.3711 141.345 94.519 136.092C94.3025 134.759 94.5888 133.378 95.3921 132.297C98.4583 128.152 103.222 127.259 109.04 128.404L109.033 128.397Z" fill="#F5A20A"/>
<path d="M95.3867 131.062C102.581 135.716 115.942 128.258 122.068 125.725C122.277 125.551 122.48 125.362 122.683 125.174C123.849 124.058 125.826 122.111 125.665 119.642C125.637 119.251 125.511 117.395 124.017 116.369C123.151 115.783 122.759 115.581 122.305 115.595C122.096 115.239 121.432 114.221 120.357 114.081C119.519 113.976 118.073 114.409 117.486 115.281C116.557 116.662 115.167 118.295 113.128 119.6C111.849 120.409 110.83 121.03 108.294 121.769C105.221 122.662 104.292 122.628 102.336 123.479C100.171 124.414 97.091 128.474 95.3867 131.069V131.062Z" fill="#D17100"/>
<path d="M94.3099 133.901C94.4985 128.905 100.401 122.864 105.702 122.731C118.051 122.431 117.415 113.682 121.11 114.75C121.599 115.015 122.269 116.124 122.423 116.933C122.87 114.938 126.928 117.38 125.671 121.217C125.943 120.868 125.873 119.564 126.139 119.515C126.425 119.347 127.543 120.338 128.032 121.259C129.966 124.873 124.421 131.48 123.869 132.122C119.175 137.612 112.742 139.545 108.873 140.292C102.852 140.473 93.7791 142.831 94.303 133.908L94.3099 133.901Z" fill="#F5A20A"/>
<path d="M122.137 116.125C122.688 118.93 117.478 126.681 112.232 128.942C112.086 129.004 111.688 130.309 112.211 130.197C117.618 127.79 123.617 120.583 123.212 117.262C123.163 116.879 122.744 116.607 123.066 116.258C122.982 116.258 122.241 116.23 122.137 116.125Z" fill="#DC8D32"/>
<path d="M125.719 119.307C126.27 122.112 121.06 129.863 115.814 132.123C115.668 132.186 115.27 133.491 115.794 133.379C121.2 130.972 127.199 123.765 126.794 120.444C126.745 120.061 126.703 119.733 126.703 119.733C126.703 119.733 126.033 119.279 125.719 119.307Z" fill="#DC8D32"/>
<path d="M35.7468 127.498C25.654 144.151 22.2176 158.37 19.1863 167.481C17.1118 173.718 17.0909 186.981 20.2759 187.295C23.1675 187.581 28.8181 191.704 38.1076 180.228C41.4812 176.063 45.9653 164.865 47.5089 154.686C48.0886 148.253 49.5344 140.3 50.3377 135.039C50.5402 133.707 50.2399 132.325 49.4227 131.251C46.3145 127.142 41.544 126.298 35.7398 127.498H35.7468Z" fill="#F5A20A"/>
<path d="M48.4286 130.532C41.2834 135.255 28.8298 127.427 22.6833 124.957C22.4738 124.783 22.2643 124.602 22.0687 124.413C20.8883 123.304 18.8907 121.385 19.0304 118.916C19.0513 118.525 19.1561 116.669 20.6438 115.629C21.5029 115.036 21.8941 114.827 22.3481 114.834C22.5506 114.478 23.2072 113.453 24.2828 113.299C25.121 113.188 26.5738 113.606 27.1675 114.464C28.1104 115.839 29.5213 117.457 31.5678 118.741C32.8529 119.536 34.0403 120.018 36.5827 120.736C39.6629 121.595 39.9284 121.274 42.4009 122.285C48.0794 124.609 46.7104 127.964 48.4356 130.539L48.4286 130.532Z" fill="#D17100"/>
<path d="M50.5233 132.855C51.0262 126.618 44.321 121.881 39.0197 121.804C26.6639 121.63 27.2157 112.874 23.5348 113.983C23.0529 114.248 22.3893 115.371 22.2426 116.181C21.7747 114.192 17.7445 116.669 19.0437 120.499C18.7713 120.151 18.8202 118.846 18.5548 118.797C18.2684 118.63 17.1578 119.634 16.6759 120.562C14.7761 124.197 20.3917 130.741 20.9505 131.383C25.7 136.825 32.1538 138.695 36.0303 139.399C42.051 139.525 50.4116 143.167 50.5373 132.869L50.5233 132.855Z" fill="#F5A20A"/>
<path d="M22.5081 115.365C21.9842 118.177 27.2716 125.872 32.538 128.084C32.6847 128.147 33.0967 129.452 32.5729 129.34C27.1458 126.989 21.0692 119.838 21.4464 116.517C21.4883 116.133 21.9074 115.854 21.5861 115.512C21.6699 115.512 22.4103 115.477 22.5081 115.372V115.365Z" fill="#DC8D32"/>
<path d="M18.9612 118.573C18.4373 121.385 23.7247 129.08 28.9911 131.292C29.1378 131.355 29.5499 132.66 29.026 132.548C23.599 130.197 17.5224 123.046 17.8995 119.725C17.9414 119.341 17.9833 119.013 17.9833 119.013C17.9833 119.013 18.6469 118.553 18.9612 118.58V118.573Z" fill="#DC8D32"/>
<path d="M4.37631 86.3122C6.33592 86.3122 7.92449 84.7255 7.92449 82.7681C7.92449 80.8107 6.33592 79.2239 4.37631 79.2239C2.4167 79.2239 0.828125 80.8107 0.828125 82.7681C0.828125 84.7255 2.4167 86.3122 4.37631 86.3122Z" fill="#F2B711"/>
<path d="M157.021 138.317C158.98 138.317 160.569 136.73 160.569 134.773C160.569 132.816 158.98 131.229 157.021 131.229C155.061 131.229 153.473 132.816 153.473 134.773C153.473 136.73 155.061 138.317 157.021 138.317Z" fill="#F2B711"/>
<path d="M52.7474 7.90893C54.707 7.90893 56.2956 6.32214 56.2956 4.36474C56.2956 2.40734 54.707 0.820557 52.7474 0.820557C50.7878 0.820557 49.1992 2.40734 49.1992 4.36474C49.1992 6.32214 50.7878 7.90893 52.7474 7.90893Z" fill="#F2B711"/>
<path d="M52.6562 126.716C54.2208 128.384 56.4908 130.393 58.6979 131.704C69.3774 138.046 85.3163 133.867 94.6478 126.723C95.2554 125.893 96.6873 124.163 97.1413 123.144C95.8351 114.57 95.3462 103.679 94.8852 99.7649C88.6689 102.751 77.5843 107.195 70.8791 107.711C63.9154 108.249 59.7736 106.679 53.6481 104.07C53.5642 105.932 53.3407 119.293 53.3268 119.481C53.1871 121.079 53.1172 125.007 52.6562 126.709V126.716Z" fill="#F5A20A"/>
<path d="M65.8139 108.457C73.3573 108.938 87.8573 104.103 94.9397 100.929C95.1982 102.757 95.5194 106.915 95.5334 107.02C94.7721 106.887 93.4869 107.627 92.998 108.017C82.7027 116.236 73.944 121.706 60.743 114.848C58.8432 113.857 56.4894 111.359 54.9528 110.759C54.3382 110.522 54.0727 110.396 53.5 110.829C53.5489 108.952 53.5908 105.617 53.514 104.592C57.5231 106.266 61.3996 108.171 65.8209 108.45L65.8139 108.457Z" fill="#D17100"/>
<path d="M39.5829 27.1985C32.6471 18.8543 18.2309 15.9938 20.92 31.2589C22.0724 37.831 27.2969 43.3287 33.7787 44.7659C34.093 45.1147 34.6308 45.1706 34.6308 45.7706C34.6378 47.445 33.9114 50.0752 33.7787 52.0566C33.7577 52.3845 32.3887 64.8101 33.1151 67.6287C33.0662 69.4147 33.0592 71.1589 32.7799 72.931C29.3085 89.2078 38.9193 98.9194 53.0213 104.745C59.3284 107.347 63.596 108.917 70.7692 108.387C77.677 107.871 89.0898 103.426 95.4947 100.44C104.149 96.4008 111.189 89.8845 113.257 80.2426C114.486 74.5287 113.725 65.8147 113.075 59.8566C112.53 54.8333 111.357 49.9357 110.4 44.9892C112.817 44.2426 115.303 44.0124 117.615 42.8473C124.271 39.4915 128.937 29.738 125.752 22.6775C121.191 12.5613 105.364 23.7729 103.122 30.8613C102.64 31.2101 99.6436 28.6915 98.9102 28.2729C96.2002 26.738 91.6113 24.7636 88.5241 24.5613C78.2567 21.8961 61.3469 21.8473 52.0295 25.224C49.6756 26.4659 47.2869 27.7217 46.2811 28.5938C45.2474 29.2287 43.4803 31.4613 42.2999 31.2101C42.0624 31.1613 40.1277 27.8473 39.5968 27.2054L39.5829 27.1985Z" fill="#F5A20A"/>
<path d="M62.2067 81.1208C62.1961 81.0665 62.1801 81.0151 62.1599 80.9785C62.1396 80.9418 62.1172 80.9228 62.0967 80.9253C62.0763 80.9281 62.0594 80.9527 62.0489 80.9935C62.0384 81.0345 62.0356 81.0882 62.0389 81.1436C62.0473 81.2854 62.0561 81.4274 62.0655 81.5692C62.1495 82.8455 62.2713 84.1168 62.4309 85.3829C62.5905 86.649 62.7878 87.9099 63.023 89.1659C63.0491 89.3054 63.0757 89.4449 63.1027 89.5844C63.1133 89.6386 63.1293 89.69 63.1496 89.7267C63.1698 89.7634 63.1923 89.7824 63.2127 89.7796C63.2331 89.7771 63.2501 89.7524 63.2606 89.7117C63.271 89.6707 63.2738 89.617 63.2705 89.5615C63.2622 89.4198 63.2533 89.2778 63.2439 89.136C63.16 87.8597 63.0381 86.5884 62.8785 85.3223C62.7189 84.0562 62.5216 82.7953 62.2864 81.5393C62.2603 81.3998 62.2338 81.2603 62.2067 81.1208Z" fill="#BC6C28"/>
<path d="M54.5778 19.9724C52.5732 21.0956 50.9388 22.8049 52.0284 25.2119C53.4183 28.2956 60.2213 31.4561 63.5181 31.7979C73.2616 32.8166 79.0798 24.6259 87.8664 24.5491C88.083 24.5491 91.3308 24.9189 92.6928 25.484C89.2354 15.9677 74.7214 11.084 68.1279 11.6282C64.7543 11.9072 59.8092 14.091 63.3155 17.9212C63.5181 18.3119 63.3574 18.6607 62.652 18.584C62.7847 18.591 57.1062 18.5631 54.5847 19.9724H54.5778Z" fill="#AD5C33"/>
<path d="M63.9897 18.3105C63.9897 18.3105 63.9757 18.2825 63.9688 18.2686C63.9688 18.2825 63.9827 18.2965 63.9897 18.3105Z" fill="#A86234"/>
<path d="M41.0756 68.9484C40.0698 62.5438 42.689 53.4391 50.8401 54.7228C52.5513 54.9949 53.3825 56.4461 54.6746 57.3531C55.7433 60.7019 56.3719 64.1833 55.3381 67.6228C55.2543 67.6577 54.2066 68.7461 54.0111 68.9484L53.6758 68.6205C54.8143 65.4949 54.046 57.8066 49.3523 59.16C44.1348 60.667 46.0696 73.3647 51.6852 70.9368V71.9345C51.1334 72.4926 50.5397 73.0089 50.0229 73.5949C48.1161 73.8531 46.6493 74.2787 44.8123 73.3298C43.7577 72.7856 41.2502 70.1345 41.0616 68.9554L41.0756 68.9484Z" fill="#F7F5E8"/>
<path d="M97.391 48.6598C96.2245 49.8668 93.2002 46.5808 91.936 45.8203C88.9047 44.0203 87.1515 44.0343 83.6941 44.0831C82.2553 44.104 79.664 45.3459 79.2869 42.8622C79.0843 41.5157 80.139 40.2598 81.2565 39.6529C85.3705 37.4063 92.9977 39.6459 95.9591 43.1203C96.8811 44.2087 98.5923 47.404 97.398 48.6459L97.391 48.6598Z" fill="#653C20"/>
<path d="M113.673 33.6042C115.615 29.7042 117.962 26.2368 122.362 24.8833C124.066 27.2554 121.803 31.9787 120.176 34.1345C117.669 37.4554 114.91 39.367 111.082 40.7903C111.403 38.4461 112.612 35.7531 113.68 33.6112L113.673 33.6042Z" fill="#CF8529"/>
<path d="M52.1023 38.5436C53.8694 38.8157 55.7273 40.1064 55.9858 41.9761C56.4049 45.018 52.9614 43.3087 50.8451 43.4273C49.0221 43.532 46.5426 44.5436 45.0758 45.618C43.6789 46.6366 42.9315 48.5343 40.906 48.4436C39.7815 48.3947 39.6697 48.0459 39.8094 47.0064C40.4031 42.4506 47.7649 37.8668 52.1093 38.5436H52.1023Z" fill="#653C20"/>
<path d="M24.814 26.8645C31.6589 27.918 33.3562 36.0598 35.7659 41.4459C32.8114 42.318 30.7998 40.2668 28.9978 38.0971C26.616 35.2366 24.2482 30.6668 24.821 26.8645H24.814Z" fill="#CF8529"/>
<path d="M41.0676 68.9475C40.2574 68.9824 40.1806 68.508 39.9641 67.894C38.0852 62.6196 40.9489 54.9522 46.2782 52.7824C51.1953 50.7801 53.2628 52.9289 54.6667 57.3522C53.3676 56.4452 52.5434 54.994 50.8321 54.722C42.6811 53.4452 40.0549 62.5429 41.0676 68.9475Z" fill="#5B3B21"/>
<path d="M109.089 40.2729C108.3 35.9054 116.346 23.4101 121.187 23.8845C121.899 23.9543 122.025 24.4217 122.353 24.8822C117.96 26.2356 115.606 29.7031 113.664 33.6031C112.595 35.745 111.394 38.438 111.066 40.7822C110.479 40.9984 109.431 42.2543 109.075 40.2659L109.089 40.2729Z" fill="#BB5627"/>
<path d="M24.8117 26.8713C25.3635 23.1666 30.7556 27.8759 31.908 29.2224C33.7171 31.3364 37.9288 38.2364 37.0347 40.9085C36.7973 41.6131 36.1896 41.3201 35.7566 41.4457C33.3469 36.0596 31.6496 27.9178 24.8047 26.8643L24.8117 26.8713Z" fill="#BB5627"/>
<path d="M75.2583 94.6437C75.5307 97.1693 70.4878 94.5739 69.2795 94.2948C66.5834 93.6809 64.048 93.4646 61.3869 94.3716C60.437 94.6925 58.5441 96.1228 58.16 96.1228C57.2031 96.1228 56.4977 94.9925 57.0494 94.0158C58.8096 90.9111 64.5579 90.4995 67.701 90.8972C69.2516 91.0925 75.0837 92.9204 75.2653 94.6367L75.2583 94.6437Z" fill="#653C20"/>
<path d="M71.4219 74.9274C73.3915 77.3623 67.3499 79.253 65.6247 78.8902C64.8633 78.1855 69.1449 72.1088 71.4219 74.9274Z" fill="#653C20"/>
<path d="M51.8459 74.913C54.1648 72.8758 56.9098 78.6177 56.33 79.2247C54.6817 79.5037 49.988 76.5456 51.8459 74.913Z" fill="#653C20"/>
<path d="M53.682 68.6204L54.0173 68.9553C53.1233 69.9041 52.7461 70.8738 51.6914 71.9343V70.9366C52.2222 70.7064 53.4934 69.1436 53.682 68.6204Z" fill="#F8EBA8"/>
<path d="M51.6832 70.9369C46.0675 73.3648 44.1258 60.6671 49.3503 59.1602C54.044 57.8067 54.8193 65.495 53.6738 68.6206C53.4782 69.1509 52.207 70.7136 51.6832 70.9369Z" fill="#5B3B21"/>
<path d="M90.175 56.8501C94.3099 60.1501 94.4775 65.5989 92.8291 70.2733C92.0748 72.4152 88.8479 74.5222 86.6058 74.8222C78.2313 75.9594 74.5504 63.7361 78.8948 58.0082C81.7096 54.2966 86.5849 53.9757 90.1819 56.8431L90.175 56.8501ZM83.0716 72.2547C89.253 72.9803 88.9247 60.1989 84.6152 59.0896C77.5677 57.2757 76.9531 71.5361 83.0716 72.2547Z" fill="#F7F5E8"/>
<path d="M78.8976 58.0158C79.7916 53.0135 84.8485 51.5135 89.1999 53.5298C94.8505 56.1461 98.0844 65.8856 92.8319 70.281C94.4803 65.6065 94.3127 60.1577 90.1778 56.8577C86.5877 53.9903 81.7054 54.3112 78.8906 58.0228L78.8976 58.0158Z" fill="#5B3B21"/>
<path d="M83.0736 72.255C76.9551 71.5364 77.5697 57.2829 84.6172 59.0898C88.9267 60.1991 89.255 72.9805 83.0736 72.255ZM81.2227 61.4968C79.735 62.2643 81.1808 64.8875 82.459 63.5619C83.2342 62.7596 82.906 60.6317 81.2227 61.4968Z" fill="#5B3B21"/>
<path d="M81.2205 61.4966C82.9038 60.6315 83.2321 62.7594 82.4568 63.5618C81.1786 64.8873 79.7328 62.2571 81.2205 61.4966Z" fill="#F7F5E8"/>
<path d="M48.5916 61.4966C50.2749 60.6315 50.6032 62.7594 49.8279 63.5618C48.5497 64.8873 47.1039 62.2571 48.5916 61.4966Z" fill="#F7F5E8"/>
<path d="M189.304 33.9108C188.654 22.148 177.36 13.2038 164.082 13.9434C150.804 14.6759 140.565 24.8062 141.215 36.569C141.354 39.1225 141.997 41.5364 143.052 43.755L135.885 49.4201C135.033 50.0899 135.501 51.4573 136.584 51.4713L149.68 51.6876C154.178 55.0224 160.08 56.8922 166.443 56.5434C179.721 55.8108 189.96 45.6806 189.311 33.9178L189.304 33.9108Z" fill="#F2B711"/>
<path d="M157.077 40.8396L156.986 40.1489C156.749 38.7186 157.147 37.114 158.397 35.4465C159.521 33.9675 160.136 32.893 160.073 31.693C160.003 30.3326 159.095 29.4675 157.412 29.5303C156.79 29.5651 156.127 29.7326 155.561 29.9977C155.1 30.214 154.548 30.0256 154.339 29.5512C154.15 29.1186 154.318 28.6163 154.73 28.393C155.582 27.9465 156.707 27.6396 157.789 27.5768C160.862 27.4163 162.35 29.2372 162.455 31.2605C162.553 33.0744 161.603 34.4349 160.401 36.0256C159.298 37.4768 158.935 38.6698 159.088 40.0303L159.151 40.721L157.07 40.8326L157.077 40.8396ZM156.686 44.607C156.637 43.6233 157.265 42.8907 158.201 42.8419C159.137 42.793 159.815 43.4558 159.864 44.4396C159.913 45.3744 159.34 46.1279 158.348 46.1768C157.412 46.2256 156.735 45.5419 156.686 44.607Z" fill="#823F1C"/>
<path d="M169.414 39.674L169.316 38.8159C169.058 37.0299 169.588 35.0554 171.181 33.0043C172.613 31.1973 173.402 29.8717 173.353 28.3787C173.297 26.6903 172.194 25.595 170.098 25.6299C169.323 25.6578 168.492 25.8531 167.786 26.1671C167.207 26.4252 166.522 26.1671 166.278 25.588C166.054 25.0508 166.278 24.4229 166.795 24.1578C167.863 23.6206 169.274 23.2647 170.615 23.2159C174.436 23.0833 176.238 25.3857 176.329 27.9043C176.405 30.1578 175.197 31.8252 173.668 33.7717C172.264 35.5438 171.782 37.0229 171.942 38.7113L172.005 39.5694L169.414 39.6601V39.674ZM168.841 44.3415C168.799 43.1136 169.602 42.2206 170.762 42.1857C171.921 42.1508 172.753 42.981 172.794 44.2089C172.836 45.3671 172.103 46.295 170.874 46.3299C169.714 46.3717 168.883 45.4996 168.841 44.3415Z" fill="#823F1C"/>
</svg>
