<svg width="101" height="108" viewBox="0 0 101 108" fill="none" xmlns="http://www.w3.org/2000/svg">
<g filter="url(#filter0_f_2_2845)">
<path d="M47.2829 18.1104C47.3269 18.102 47.3703 18.0908 47.4148 18.0851C48.3796 17.9596 49.4499 18.0095 50.4229 18.0112C57.3333 18.0235 64.3656 20.3604 69.6251 24.918C72.2157 27.1628 74.4766 29.9846 75.5757 33.2645C78.8803 43.1257 70.3253 47.525 71.3036 54.9425C72.0865 60.8773 77.4469 64.1386 77.9067 71.0166C78.1907 75.2643 76.8437 79.9849 74.0006 83.1836C68.4319 89.4483 60.5985 87.3826 53.4925 86.6613C51.5272 86.4619 49.6407 86.435 47.6695 86.5458C42.4918 87.2088 37.6642 89.2576 32.4488 89.8607C27.9162 90.3848 22.7943 89.4621 19.1641 86.5493C16.0517 84.0519 14.5619 80.5244 14.1696 76.6377C13.5435 70.4348 15.6889 64.1995 16.2191 58.0382C16.745 51.9281 15.7776 45.6882 17.2936 39.6771C18.2594 35.9834 20.0179 32.544 22.4468 29.5981C28.5153 22.1748 38.0464 19.0552 47.2829 18.1104Z" fill="white" fill-opacity="0.36"/>
</g>
<path d="M32.8204 38.8358L39.7471 38.8244C41.2385 38.822 42.7669 38.7535 44.2496 38.9244C44.8641 39.3134 45.3455 39.7174 45.5993 40.4262C45.804 40.988 45.7642 41.6098 45.4897 42.1409C45.0945 42.9232 44.4735 43.2728 43.6775 43.554C43.7149 46.157 43.3237 50.9575 43.9072 53.2666C44.3158 54.8838 45.3118 56.5182 46.0545 58.0107L51.2023 68.3276C52.092 70.1105 53.1791 71.9465 53.8636 73.8133C54.0705 74.3774 54.1833 74.9347 54.1841 75.5362C54.1912 76.7849 53.6947 77.9836 52.8067 78.8615C50.8022 80.8516 46.0467 80.2304 43.3608 80.2154L31.7576 80.2271C29.8377 80.2283 27.5591 80.4642 25.6897 80.0698C24.8565 79.8926 24.094 79.4738 23.4975 78.8656C22.4512 77.8046 22.003 76.3011 22.2133 74.8349C22.4562 73.1414 23.6075 71.3507 24.3604 69.8167L29.655 59.0682C30.5529 57.2489 31.7473 55.2832 32.339 53.3426C33.032 51.0705 32.6754 46.0553 32.67 43.5624C32.3378 43.4721 32.0075 43.3705 31.7101 43.193C31.1301 42.8469 30.749 42.199 30.6154 41.5479C30.4939 40.9553 30.6011 40.2927 30.9678 39.8027C31.4448 39.165 32.065 38.9291 32.8204 38.8358Z" fill="#18263D"/>
<path d="M28.3881 64.1307C30.7741 63.5062 33.5085 63.3773 35.9323 63.8432C40.0535 64.6352 41.4625 65.8374 46.0984 64.8266C46.7525 64.6657 47.4112 64.515 48.0548 64.316C49.064 66.3811 50.086 68.4399 51.1211 70.4923C51.7858 71.8208 52.6925 73.2855 53.0516 74.7223C53.2111 75.375 53.1858 76.0594 52.9786 76.6984C52.6756 77.62 52.0079 78.3769 51.1312 78.7926C50.6134 79.0382 50.0465 79.1154 49.4798 79.1548C45.7176 79.4164 41.652 79.193 37.8633 79.1897L30.4077 79.1824C29.1847 79.1812 27.9236 79.252 26.7053 79.176C26.2779 79.1494 25.8435 79.0743 25.441 78.9247C24.7478 78.6672 24.1676 78.1591 23.7409 77.5624C23.5459 77.2135 23.3703 76.8133 23.2821 76.4225C23.1414 75.813 23.1605 75.1774 23.3372 74.5773C23.7835 73.0295 27.3893 65.6714 28.3881 64.1307Z" fill="#6ABFD1"/>
<path d="M46.0984 64.8265C46.7525 64.6656 47.4112 64.5148 48.0548 64.3159C49.064 66.381 50.086 68.4398 51.1211 70.4922C51.7858 71.8207 52.6925 73.2854 53.0516 74.7222C53.2111 75.3749 53.1858 76.0593 52.9786 76.6983C52.6756 77.6199 52.0079 78.3768 51.1312 78.7925C50.6134 79.0381 50.0465 79.1153 49.4798 79.1547C45.7176 79.4163 41.652 79.1929 37.8633 79.1895L30.4077 79.1823C29.1847 79.1811 27.9236 79.2519 26.7053 79.1759C26.2779 79.1493 25.8435 79.0742 25.441 78.9246C24.7478 78.667 24.1676 78.159 23.7409 77.5623L40.5432 77.62C43.4479 77.6215 46.4747 77.8023 49.3604 77.5308C49.9557 77.1085 50.4822 76.7374 50.712 75.9993C50.8378 75.6085 50.8513 75.1901 50.7505 74.792C50.3731 73.3398 49.4837 71.8845 48.8285 70.5335C47.9083 68.6359 47.0373 66.7155 46.0984 64.8265Z" fill="#53A2BD"/>
<path d="M42.3786 69.9092C42.9943 69.6919 43.6793 69.8236 44.1705 70.2538C44.6615 70.6838 44.8823 71.3455 44.7479 71.9842C44.6133 72.6229 44.1445 73.1395 43.5216 73.3352C42.5816 73.6307 41.5782 73.1183 41.2664 72.1838C40.9545 71.2493 41.4494 70.2373 42.3786 69.9092Z" fill="#D0E8F6"/>
<path d="M33.387 66.3766C34.0007 66.2043 34.6596 66.3771 35.1095 66.8287C35.5594 67.2803 35.7299 67.9397 35.5548 68.5527C35.38 69.1655 34.8872 69.6359 34.2666 69.7821C33.335 70.0018 32.3988 69.4365 32.1595 68.5099C31.9201 67.5833 32.4655 66.6355 33.387 66.3766Z" fill="#D0E8F6"/>
<path d="M30.7869 72.8121C31.4397 72.6928 32.0663 73.1232 32.1891 73.7752C32.3121 74.4272 31.8851 75.056 31.2336 75.1827C30.577 75.3102 29.9418 74.8792 29.818 74.2219C29.6942 73.5647 30.1288 72.9322 30.7869 72.8121Z" fill="#D0E8F6"/>
<path d="M33.7012 43.5068C36.6859 43.4814 39.6707 43.4774 42.6552 43.4946C42.6476 46.0939 42.3591 50.7115 42.81 53.0913C43.2774 55.559 46.3191 60.8976 47.5554 63.3639C46.8079 63.5642 46.058 63.7922 45.3029 63.9595C41.0138 64.545 39.7769 63.4858 35.8902 62.7681C33.5685 62.3395 31.2032 62.4708 28.9056 62.9632C30.4475 59.8376 33.2582 55.1358 33.7111 51.8264C33.6874 49.0532 33.6842 46.28 33.7012 43.5068Z" fill="#FEEFD7"/>
<path d="M33.7012 43.5068C36.6859 43.4814 39.6706 43.4774 42.6552 43.4946C42.6476 46.0939 42.3591 50.7115 42.81 53.0913C43.2774 55.559 46.3191 60.8976 47.5554 63.3639C46.8079 63.5642 46.058 63.7922 45.3029 63.9595C45.1444 62.6558 44.301 61.3465 43.7312 60.1826C42.7884 58.2567 41.6906 56.2054 41.1014 54.1387C40.309 51.3591 40.6439 47.6122 40.641 44.6857L33.8324 44.6834C33.7977 46.7535 34.1386 49.921 33.7111 51.8264C33.6874 49.0532 33.6842 46.28 33.7012 43.5068Z" fill="#FEFEFE"/>
<path d="M35.8319 56.6591C36.2827 56.4867 36.7915 56.5757 37.1569 56.8908C37.5222 57.2058 37.6849 57.6961 37.5805 58.1669C37.4761 58.6379 37.1215 59.0135 36.6571 59.1447C35.9823 59.3354 35.2769 58.9616 35.0561 58.2963C34.8353 57.6309 35.177 56.9095 35.8319 56.6591Z" fill="#6ABFD1"/>
<path d="M39.7742 60.5705C40.1455 60.3828 40.59 60.4143 40.9309 60.6527C41.272 60.891 41.4544 61.2973 41.4057 61.7105C41.3571 62.1235 41.0852 62.4763 40.6981 62.6289C40.1367 62.8504 39.5002 62.5914 39.2531 62.0408C39.006 61.4901 39.2354 60.8427 39.7742 60.5705Z" fill="#6ABFD1"/>
<path d="M32.3837 39.9142C34.0699 39.8243 35.7924 39.8893 37.4821 39.8854C39.3159 39.8811 41.1743 39.8157 43.0059 39.8875C43.5144 39.9075 44.0861 39.9599 44.4344 40.3785C44.6522 40.6404 44.6894 40.9495 44.6423 41.2777C44.5626 41.8326 44.3002 42.0932 43.8782 42.4224C41.9949 42.5195 40.0749 42.4536 38.1874 42.4593C36.5643 42.4642 34.9086 42.5478 33.2888 42.4676C32.7443 42.4408 32.1657 42.3682 31.7966 41.9188C31.6188 41.7024 31.573 41.4617 31.5994 41.187C31.6565 40.5909 31.9646 40.2882 32.3837 39.9142Z" fill="#FEEFD7"/>
<path d="M52.7625 32.3438C54.3334 32.2643 62.3189 32.1086 63.3095 32.4724C63.9733 32.7163 64.5413 33.2131 64.8104 33.8747C65.0303 34.4152 65.0434 35.0012 64.8056 35.5377C64.4593 36.3184 63.8382 36.6875 63.0733 36.9758C63.2195 43.3197 63.0902 49.6929 63.0914 56.0399C63.0919 58.765 63.3972 63.4456 62.9644 65.9365C62.7848 66.9698 62.2739 67.7324 61.6211 68.5314C60.5618 69.455 59.3298 70 57.91 69.9864C56.5848 69.9812 55.3164 69.4466 54.3873 68.5018C53.7708 67.8636 53.246 66.9548 53.0886 66.0749C52.6633 63.6954 52.9376 59.2602 52.9372 56.7347L52.9601 37.0282C52.1956 36.7093 51.631 36.3883 51.2607 35.6051C51.0022 35.0583 50.9446 34.4467 51.157 33.8749C51.4529 33.0775 52.0359 32.6864 52.7625 32.3438Z" fill="#18263D"/>
<path d="M60.0765 47.2419L62.0167 47.2509L62.0411 59.3225C62.0443 61.4088 62.2685 63.724 61.8986 65.7685C61.7546 66.5647 61.4238 67.2651 60.8402 67.8356C59.9754 68.681 58.7977 68.981 57.6174 68.9523C57.5418 68.9505 57.466 68.9479 57.3904 68.9446C56.5413 68.7849 55.7361 68.3934 55.1232 67.7805C54.5973 67.2545 54.2923 66.6051 54.1594 65.8776C53.7802 63.8033 54.014 61.3692 54.0172 59.2584L54.0187 47.2426L60.0765 47.2419Z" fill="#F18B88"/>
<path d="M57.1465 50.7256C57.7136 50.5907 58.3094 50.7733 58.7034 51.2029C59.0973 51.6326 59.2277 52.2419 59.044 52.795C58.8602 53.3482 58.3913 53.7585 57.8184 53.8671C56.9607 54.03 56.1298 53.4782 55.9472 52.6246C55.7646 51.7709 56.2971 50.9277 57.1465 50.7256Z" fill="#FFE0DC"/>
<path d="M56.9513 60.8187C57.6777 60.6307 58.4194 61.065 58.6109 61.7903C58.8024 62.5157 58.3717 63.2594 57.6471 63.4544C56.9176 63.6507 56.1673 63.2164 55.9745 62.4861C55.7818 61.7557 56.2197 61.0079 56.9513 60.8187Z" fill="#FFE0DC"/>
<path d="M60.0868 57.5872C59.663 57.9827 59.002 57.9709 58.5925 57.5607C58.1829 57.1507 58.1725 56.4898 58.5686 56.0668C58.9648 55.6437 59.6251 55.6109 60.0613 55.9926C60.2901 56.1927 60.4235 56.4804 60.4282 56.7842C60.4331 57.0881 60.3091 57.3798 60.0868 57.5872Z" fill="#FFE0DC"/>
<path d="M54.646 36.9199C56.9802 37.2512 59.6584 37.0102 62.0263 37.0035L62.0201 46.1519C60.092 46.1903 55.6772 46.4483 54.0225 46.1301C54.0066 43.1774 53.8559 40.1556 54.044 37.2112C54.2118 36.9573 54.3568 36.9871 54.646 36.9199Z" fill="#FEEFD7"/>
<path d="M54.646 36.9199C56.9802 37.2512 59.6584 37.0102 62.0263 37.0035L62.0201 46.1519C60.092 46.1903 55.6772 46.4483 54.0225 46.1301C55.9496 45.8334 58.1669 46.0481 60.1221 46.0538L60.1048 38.0924C58.4465 38.0207 56.692 38.2487 55.056 37.9951C54.7638 37.6769 54.7461 37.3334 54.646 36.9199Z" fill="#FEFEFE"/>
<path d="M53.0842 33.3665L59.1772 33.3363C60.1989 33.3331 61.3465 33.2277 62.3526 33.4076C62.8771 33.5012 63.4877 33.6796 63.7952 34.1472C63.9258 34.349 63.965 34.5964 63.9032 34.8285C63.7659 35.3664 63.4774 35.6365 63.0127 35.9084L56.2543 35.9168C55.2445 35.9187 53.9958 36.0762 53.0177 35.8569C52.6662 35.7784 52.3687 35.5457 52.208 35.2235C52.048 34.9064 52.0588 34.5228 52.1652 34.1907C52.3083 33.745 52.7002 33.5686 53.0842 33.3665Z" fill="#FEEFD7"/>
<path d="M36.9975 32.4162C38.3942 32.2806 39.6398 33.2941 39.7904 34.689C39.9412 36.0836 38.9408 37.3398 37.5473 37.5052C36.6325 37.6141 35.73 37.2229 35.1838 36.4815C34.6375 35.7398 34.5319 34.7621 34.9072 33.921C35.2825 33.08 36.0807 32.5053 36.9975 32.4162Z" fill="#18263D"/>
<path d="M36.7602 33.5365C37.2782 33.3593 37.8512 33.476 38.2585 33.8417C38.6658 34.2072 38.8433 34.7644 38.7227 35.298C38.6021 35.8318 38.2022 36.2584 37.6774 36.4136C36.8892 36.6465 36.0595 36.2067 35.81 35.4238C35.5604 34.6411 35.9827 33.8024 36.7602 33.5365Z" fill="url(#paint0_linear_2_2845)"/>
<path d="M40.4451 26.8369C41.7687 26.5098 43.1098 27.305 43.4575 28.623C43.8051 29.9411 43.0305 31.2941 41.7177 31.662C40.8504 31.9051 39.9193 31.6618 39.2814 31.0258C38.6437 30.3896 38.3983 29.4593 38.6395 28.5915C38.8805 27.7237 39.5706 27.0532 40.4451 26.8369Z" fill="#18263D"/>
<path d="M40.6494 27.8399C41.4113 27.629 42.2028 28.0624 42.4351 28.818C42.6672 29.5735 42.2558 30.3764 41.507 30.6296C41.0035 30.7997 40.4475 30.6831 40.055 30.325C39.6626 29.9668 39.4956 29.4239 39.6193 28.9071C39.7427 28.3905 40.1374 27.9817 40.6494 27.8399Z" fill="#D0E8F6"/>
<defs>
<filter id="filter0_f_2_2845" x="-8.98388" y="-5.04" width="109.968" height="118.08" filterUnits="userSpaceOnUse" color-interpolation-filters="sRGB">
<feFlood flood-opacity="0" result="BackgroundImageFix"/>
<feBlend mode="normal" in="SourceGraphic" in2="BackgroundImageFix" result="shape"/>
<feGaussianBlur stdDeviation="11.52" result="effect1_foregroundBlur_2_2845"/>
</filter>
<linearGradient id="paint0_linear_2_2845" x1="38.2598" y1="35.5463" x2="36.1293" y2="34.2539" gradientUnits="userSpaceOnUse">
<stop stop-color="#A2C8E6"/>
<stop offset="1" stop-color="#C8ECFB"/>
</linearGradient>
</defs>
</svg>
