<svg width="32" height="32" viewBox="0 0 32 32" fill="none" xmlns="http://www.w3.org/2000/svg">
<path d="M26.0653 6.6604H12.469V12.2864H26.0653V6.6604Z" fill="#EBE6EF"/>
<path d="M28.7964 14.4894H7.71362C5.2206 14.4894 3.20386 12.5396 3.20386 9.45123C3.20386 6.66797 5.2206 4.41309 7.71362 4.41309H28.7964C28.7964 5.66332 27.7843 6.66797 26.5415 6.66797H8.39828C7.62432 6.66797 6.91735 6.98053 6.40386 7.49402C5.89781 8.0075 5.57781 8.70704 5.57781 9.48099C5.57781 11.0363 6.83549 12.294 8.39083 12.294H9.43269V14.028L10.9434 12.3312L12.4541 14.028V12.294H26.5936C27.8141 12.294 28.7964 13.2763 28.7964 14.4894Z" fill="#E83A30"/>
<g style="mix-blend-mode:multiply" opacity="0.5">
<path d="M28.7964 14.4892H7.71362C5.2206 14.4892 3.20386 12.5394 3.20386 9.45108C3.20386 7.79154 3.91828 6.31805 5.02711 5.39526C4.27549 6.29573 3.82153 7.50875 3.82153 8.8334C3.82153 11.9292 5.83828 13.8715 8.3313 13.8715H28.7146C28.7666 14.065 28.7964 14.2734 28.7964 14.4892Z" fill="#E83A30"/>
</g>
<path d="M9.44009 6.6604V12.2864H8.39823C6.84288 12.2864 5.58521 11.0288 5.58521 9.47342C5.58521 8.69947 5.89776 7.99249 6.41125 7.48645C6.92474 6.9804 7.62427 6.6604 8.40567 6.6604H9.44009Z" fill="#EBE6EF"/>
<g style="mix-blend-mode:multiply" opacity="0.5">
<path d="M19.2038 12.2939H12.4689V11.8474C14.188 12.1227 16.3908 12.2939 19.2038 12.2939ZM9.44009 11.0957V12.2864H8.39823C6.84288 12.2864 5.58521 11.0287 5.58521 9.4734C5.58521 8.69945 5.89776 7.99247 6.41125 7.48642C6.50055 7.39712 6.5973 7.30782 6.70148 7.2334C6.66427 7.30038 5.42148 9.62224 9.44009 11.0957Z" fill="#EBE6EF"/>
</g>
<path d="M12.4689 6.6604V14.0278L10.9582 12.3237L9.44009 14.0278V6.6604H12.4689Z" fill="#3A3347"/>
<g style="mix-blend-mode:multiply" opacity="0.5">
<path d="M9.87172 6.6604V13.5367L9.44009 14.0278V6.6604H9.87172Z" fill="#3A3347"/>
</g>
<path d="M26.415 22.5785C26.415 23.3599 26.1024 24.0595 25.5889 24.5655C25.0829 25.079 24.3759 25.3915 23.6019 25.3915H5.93497V19.7581H23.6019C25.1573 19.7655 26.415 21.0232 26.415 22.5785Z" fill="#EBE6EF"/>
<g style="mix-blend-mode:multiply" opacity="0.5">
<path d="M20.454 25.3618H5.93497V19.7283C5.94985 19.7655 6.12846 22.199 7.76566 23.4715C9.70055 24.9673 13.5703 25.3469 20.454 25.3618Z" fill="#EBE6EF"/>
</g>
<path d="M28.7964 22.5489C28.7964 25.6447 26.7797 27.587 24.2866 27.587H3.20386C3.20386 26.374 4.18618 25.3917 5.39921 25.3917H23.602C24.3759 25.3917 25.0829 25.0791 25.589 24.5656C26.1025 24.0596 26.415 23.3526 26.415 22.5787C26.415 21.0233 25.1573 19.7656 23.602 19.7656H5.45874C4.83362 19.7656 4.27549 19.5126 3.86618 19.1033C3.45688 18.694 3.20386 18.1284 3.20386 17.5108H24.2866C26.7797 17.5033 28.7964 19.7656 28.7964 22.5489Z" fill="#30E8BD"/>
<g style="mix-blend-mode:multiply" opacity="0.5">
<path d="M26.5266 26.9917C25.8643 27.3787 25.1053 27.587 24.2866 27.587H3.20386C3.20386 27.3787 3.23363 27.1777 3.28572 26.9917H26.5266Z" fill="#30E8BD"/>
</g>
<path d="M9.44021 8.76657V6.66053M12.469 8.76657V6.66053M26.0652 12.294V6.66053M23.1704 9.47355H15.4011M12.469 12.294H26.6011C27.8141 12.294 28.7964 13.2763 28.7964 14.4894H7.71363C5.2206 14.4894 3.20386 12.5396 3.20386 9.45123C3.20386 6.66797 5.2206 4.41309 7.71363 4.41309H28.7964C28.7964 5.66332 27.7843 6.66797 26.5415 6.66797H8.39828C7.62432 6.66797 6.91735 6.98053 6.4113 7.49402C5.90525 8.00006 5.58525 8.70704 5.58525 9.48843C5.58525 11.0438 6.84293 12.3015 8.39828 12.3015H9.44014" stroke="#121331" stroke-width="0.52093" stroke-miterlimit="10" stroke-linecap="round" stroke-linejoin="round"/>
<path d="M12.469 8.521V14.028L10.9584 12.3238L9.44021 14.028V8.521M5.93495 25.3917V19.7656M8.82983 22.5787H16.5991M19.7992 22.5787H23.2299M24.2866 27.587C26.7797 27.587 28.7964 25.6373 28.7964 22.5489C28.7964 19.7656 26.7797 17.5108 24.2866 17.5108H3.20386C3.20386 18.7536 4.21595 19.7656 5.45874 19.7656H23.602C25.1573 19.7656 26.415 21.0233 26.415 22.5787C26.415 24.134 25.1573 25.3917 23.602 25.3917H5.39921C4.18618 25.3917 3.20386 26.374 3.20386 27.587H24.2866Z" stroke="#121331" stroke-width="0.52093" stroke-miterlimit="10" stroke-linecap="round" stroke-linejoin="round"/>
</svg>
