<svg width="32" height="32" viewBox="0 0 32 32" fill="none" xmlns="http://www.w3.org/2000/svg">
<path d="M26.2482 4.0376H5.75183C4.83075 4.0376 4.08411 4.78424 4.08411 5.70532V26.2017C4.08411 27.1228 4.83075 27.8694 5.75183 27.8694H26.2482C27.1693 27.8694 27.9159 27.1228 27.9159 26.2017V5.70532C27.9159 4.78424 27.1693 4.0376 26.2482 4.0376Z" fill="#D1F3F9"/>
<path d="M27.9152 7.83856V5.68042C27.9153 5.35072 27.8177 5.02838 27.6346 4.75417C27.4516 4.47995 27.1913 4.26618 26.8868 4.13988C26.6846 4.05601 26.4678 4.0128 26.2489 4.0127H5.75182C5.42202 4.01269 5.09963 4.11052 4.82545 4.29379C4.55126 4.47706 4.3376 4.73754 4.2115 5.04228C4.12778 5.24461 4.08474 5.46145 4.08484 5.68042V7.83856H27.9152Z" fill="#393346"/>
<path d="M10.6421 5.94897H10.6324" stroke="#E8E12F" stroke-width="1.11628" stroke-linecap="round" stroke-linejoin="round"/>
<path d="M8.54901 5.94897H8.53934" stroke="#FFC57D" stroke-width="1.11628" stroke-linecap="round" stroke-linejoin="round"/>
<path d="M6.46527 5.94897H6.4556" stroke="#2FE8BC" stroke-width="1.11628" stroke-linecap="round" stroke-linejoin="round"/>
<path d="M27.9161 7.86108V17.8652H16.0002V7.86108H27.9161Z" fill="#4AB3FC"/>
<path d="M27.9161 17.8652V26.2016C27.9161 27.1229 27.1689 27.8693 26.2484 27.8693H16.0002V17.8652H27.9161Z" fill="#F18AA8"/>
<path d="M25.9619 19.7422H25.972" stroke="#121330" stroke-width="0.893023" stroke-linecap="round" stroke-linejoin="round"/>
<path d="M25.962 9.6958H25.9721" stroke="#121330" stroke-width="0.893023" stroke-linecap="round" stroke-linejoin="round"/>
<path d="M13.9099 9.6958H13.92" stroke="#121330" stroke-width="0.893023" stroke-linecap="round" stroke-linejoin="round"/>
<path d="M21.9907 22.6511C22.9154 22.6511 23.6651 21.9014 23.6651 20.9767C23.6651 20.0519 22.9154 19.3022 21.9907 19.3022C21.066 19.3022 20.3163 20.0519 20.3163 20.9767C20.3163 21.9014 21.066 22.6511 21.9907 22.6511Z" fill="#FFC57D"/>
<path d="M21.9907 22.6511C22.9154 22.6511 23.6651 21.9014 23.6651 20.9767C23.6651 20.0519 22.9154 19.3022 21.9907 19.3022C21.066 19.3022 20.3163 20.0519 20.3163 20.9767C20.3163 21.9014 21.066 22.6511 21.9907 22.6511Z" stroke="#121330" stroke-width="0.52093" stroke-linecap="round" stroke-linejoin="round"/>
<path d="M20.8372 23.3955C19.6042 23.3955 18.6047 24.395 18.6047 25.6281V26.149C18.6047 26.2082 18.6282 26.265 18.6701 26.3069C18.7119 26.3487 18.7687 26.3723 18.8279 26.3723H25.0791C25.1383 26.3723 25.1951 26.3487 25.237 26.3069C25.2788 26.265 25.3023 26.2082 25.3023 26.149V25.6281C25.3023 24.395 24.3028 23.3955 23.0698 23.3955H20.8372Z" fill="#393346"/>
<path d="M20.8372 23.3955C19.6042 23.3955 18.6047 24.395 18.6047 25.6281V26.149C18.6047 26.2082 18.6282 26.265 18.6701 26.3069C18.7119 26.3487 18.7687 26.3723 18.8279 26.3723H25.0791C25.1383 26.3723 25.1951 26.3487 25.237 26.3069C25.2788 26.265 25.3023 26.2082 25.3023 26.149V25.6281C25.3023 24.395 24.3028 23.3955 23.0698 23.3955H20.8372Z" stroke="#121330" stroke-width="0.52093" stroke-linecap="round" stroke-linejoin="round"/>
<g style="mix-blend-mode:multiply" opacity="0.5">
<path d="M21.4326 20.6046C21.4326 20.0792 21.6745 19.6103 22.0531 19.3034C22.0324 19.3026 22.0116 19.3022 21.9907 19.3022C21.066 19.3022 20.3163 20.0519 20.3163 20.9767C20.3163 21.9014 21.066 22.6511 21.9907 22.6511C22.3745 22.6517 22.7468 22.5199 23.0446 22.2779C22.1488 22.2451 21.4326 21.5085 21.4326 20.6046Z" fill="#FFC57D"/>
</g>
<g style="mix-blend-mode:multiply" opacity="0.5">
<path d="M18.6047 25.6281C18.6047 24.395 19.6042 23.3955 20.8372 23.3955H22.3256C21.0926 23.3955 20.093 24.395 20.093 25.6281V26.3723H18.8279C18.7687 26.3723 18.7119 26.3487 18.6701 26.3069C18.6282 26.265 18.6047 26.2082 18.6047 26.149V25.6281Z" fill="#393346"/>
</g>
<path d="M21.9907 12.6047C22.9154 12.6047 23.6651 11.855 23.6651 10.9303C23.6651 10.0056 22.9154 9.25586 21.9907 9.25586C21.066 9.25586 20.3163 10.0056 20.3163 10.9303C20.3163 11.855 21.066 12.6047 21.9907 12.6047Z" fill="#FFC57D"/>
<path d="M20.8372 13.3489C19.6042 13.3489 18.6047 14.3484 18.6047 15.5814V16.1024C18.6047 16.1616 18.6282 16.2184 18.6701 16.2602C18.7119 16.3021 18.7687 16.3256 18.8279 16.3256H25.0791C25.1383 16.3256 25.1951 16.3021 25.237 16.2602C25.2788 16.2184 25.3023 16.1616 25.3023 16.1024V15.5814C25.3023 14.3484 24.3028 13.3489 23.0698 13.3489H20.8372Z" fill="#D1F3F9"/>
<g style="mix-blend-mode:multiply" opacity="0.5">
<path d="M21.4326 10.5582C21.4326 10.0328 21.6745 9.56395 22.0531 9.25698C22.0324 9.25623 22.0116 9.25586 21.9907 9.25586C21.066 9.25586 20.3163 10.0056 20.3163 10.9303C20.3163 11.855 21.066 12.6047 21.9907 12.6047C22.3745 12.6053 22.7468 12.4735 23.0446 12.2315C22.1488 12.1987 21.4326 11.4621 21.4326 10.5582Z" fill="#FFC57D"/>
</g>
<g style="mix-blend-mode:multiply" opacity="0.5">
<path d="M18.6047 15.5814C18.6047 14.3484 19.6042 13.3489 20.8372 13.3489H22.3256C21.0926 13.3489 20.093 14.3484 20.093 15.5814V16.3256H18.8279C18.7687 16.3256 18.7119 16.3021 18.6701 16.2602C18.6282 16.2184 18.6047 16.1616 18.6047 16.1024V15.5814Z" fill="#D1F3F9"/>
</g>
<path d="M21.9907 12.6047C22.9154 12.6047 23.6651 11.855 23.6651 10.9303C23.6651 10.0056 22.9154 9.25586 21.9907 9.25586C21.066 9.25586 20.3163 10.0056 20.3163 10.9303C20.3163 11.855 21.066 12.6047 21.9907 12.6047Z" stroke="#121330" stroke-width="0.52093" stroke-linecap="round" stroke-linejoin="round"/>
<path d="M20.8372 13.3489C19.6042 13.3489 18.6047 14.3484 18.6047 15.5814V16.1024C18.6047 16.1616 18.6282 16.2184 18.6701 16.2602C18.7119 16.3021 18.7687 16.3256 18.8279 16.3256H25.0791C25.1383 16.3256 25.1951 16.3021 25.237 16.2602C25.2788 16.2184 25.3023 16.1616 25.3023 16.1024V15.5814C25.3023 14.3484 24.3028 13.3489 23.0698 13.3489H20.8372Z" stroke="#121330" stroke-width="0.52093" stroke-linecap="round" stroke-linejoin="round"/>
<path d="M8.55369 18.5581C7.11518 18.5581 5.94904 19.7242 5.94904 21.1628V21.6837C5.94904 21.7429 5.97256 21.7997 6.01443 21.8416C6.05629 21.8834 6.11308 21.9069 6.17229 21.9069H13.9118C13.971 21.9069 14.0278 21.8834 14.0697 21.8416C14.1116 21.7997 14.1351 21.7429 14.1351 21.6837V21.1628C14.1351 19.7242 12.9689 18.5581 11.5304 18.5581H8.55369Z" fill="#4AB3FC"/>
<g style="mix-blend-mode:multiply" opacity="0.5">
<path d="M5.94904 21.1628C5.94904 19.7242 7.11518 18.5581 8.55369 18.5581H10.0421C8.60355 18.5581 7.43741 19.7242 7.43741 21.1628V21.9069H6.17229C6.11308 21.9069 6.05629 21.8834 6.01443 21.8416C5.97256 21.7997 5.94904 21.7429 5.94904 21.6837V21.1628Z" fill="#4AB3FC"/>
</g>
<path d="M10.0793 17.4419C11.2095 17.4419 12.1258 16.5257 12.1258 15.3954C12.1258 14.2651 11.2095 13.3489 10.0793 13.3489C8.94899 13.3489 8.03275 14.2651 8.03275 15.3954C8.03275 16.5257 8.94899 17.4419 10.0793 17.4419Z" fill="#FFC57D"/>
<g style="mix-blend-mode:multiply">
<path d="M11.1948 17.0694C11.2155 17.0694 11.2361 17.0691 11.2567 17.0684C10.9121 17.3118 10.5004 17.4422 10.0785 17.4415C8.94825 17.4415 8.03201 16.5253 8.03201 15.395C8.03201 14.2855 8.91499 13.3821 10.0165 13.3494C9.49136 13.7198 9.14829 14.3313 9.14829 15.0229C9.14829 16.1532 10.0645 17.0694 11.1948 17.0694Z" fill="#FFC57D"/>
</g>
<path d="M8.55369 18.5582C7.11518 18.5582 5.94904 19.7243 5.94904 21.1628V21.6838C5.94904 21.743 5.97256 21.7998 6.01443 21.8416C6.05629 21.8835 6.11308 21.907 6.17229 21.907H13.9118C13.971 21.907 14.0278 21.8835 14.0697 21.8416C14.1116 21.7998 14.1351 21.743 14.1351 21.6838V21.1628C14.1351 19.7243 12.9689 18.5582 11.5304 18.5582H8.55369ZM10.0793 17.4419C11.2095 17.4419 12.1258 16.5257 12.1258 15.3954C12.1258 14.2651 11.2095 13.3489 10.0793 13.3489C8.949 13.3489 8.03276 14.2651 8.03276 15.3954C8.03276 16.5257 8.949 17.4419 10.0793 17.4419Z" stroke="#121330" stroke-width="0.52093" stroke-linecap="round" stroke-linejoin="round"/>
<path d="M27.767 7.8607H4.08417M16 7.88474V27.8693M27.9158 17.865H16.0749M26.2483 27.8693H5.75167C4.83074 27.8693 4.08417 27.1227 4.08417 26.2018V5.7051C4.08417 4.78417 4.83074 4.0376 5.75167 4.0376H26.2483C27.1693 4.0376 27.9158 4.78417 27.9158 5.7051V26.2018C27.9158 27.1227 27.1693 27.8693 26.2483 27.8693Z" stroke="#121330" stroke-width="0.52093" stroke-linecap="round" stroke-linejoin="round"/>
</svg>
