<svg width="32" height="32" viewBox="0 0 32 32" fill="none" xmlns="http://www.w3.org/2000/svg">
<path d="M29.9021 21.0661L29.2234 16.5794H26.842V14.5984H5.02994L4.42119 19.8583C4.40379 20.0106 4.41875 20.1648 4.46511 20.3108C4.51148 20.4568 4.58819 20.5915 4.69022 20.7058C4.79224 20.8201 4.91729 20.9115 5.05715 20.9742C5.19701 21.0368 5.34852 21.0692 5.50175 21.0691H29.9021V21.0661Z" fill="#BBED66"/>
<path d="M4.54473 18.7837L4.42119 19.8583C4.40379 20.0106 4.41875 20.1648 4.46511 20.3108C4.51148 20.4568 4.58819 20.5915 4.69022 20.7058C4.79224 20.8201 4.91729 20.9115 5.05715 20.9742C5.19701 21.0368 5.34852 21.0692 5.50175 21.0691H29.9021L29.5553 18.7867L4.54473 18.7837Z" fill="#3A3347"/>
<g style="mix-blend-mode:multiply" opacity="0.5">
<path d="M8.94659 21.0661C8.79358 21.0661 8.64229 21.034 8.50253 20.9716C8.36285 20.9092 8.23782 20.818 8.1358 20.704C8.03369 20.59 7.95689 20.4558 7.91023 20.31C7.86365 20.1643 7.84832 20.0103 7.86529 19.8582L7.98956 18.7866H4.54473L4.42119 19.8582C4.40379 20.0105 4.41875 20.1647 4.46511 20.3107C4.51148 20.4568 4.58819 20.5914 4.69022 20.7057C4.79224 20.82 4.91729 20.9115 5.05715 20.9742C5.19701 21.0367 5.34852 21.0691 5.50175 21.069H8.94659V21.0661Z" fill="#3A3347"/>
</g>
<path d="M20.9503 14.5983L20.355 9.14788C20.3161 8.78785 20.1454 8.45497 19.8756 8.21333C19.6059 7.97177 19.2563 7.83864 18.8941 7.8396H7.1211C6.75915 7.83864 6.40967 7.97185 6.14017 8.21348C5.87065 8.45505 5.70021 8.788 5.66175 9.14788L5.02994 14.5983H20.9503Z" fill="#EBE6EF"/>
<g style="mix-blend-mode:multiply" opacity="0.5">
<path d="M9.13042 7.8396H7.1211C6.75915 7.83864 6.40967 7.97185 6.14017 8.21348C5.87065 8.45505 5.70021 8.788 5.66175 9.14788L5.02994 14.5983H8.47553L9.13042 7.8396Z" fill="#EBE6EF"/>
</g>
<path d="M16.2203 14.5983V7.8396" stroke="#121331" stroke-width="0.52093" stroke-linecap="round" stroke-linejoin="round"/>
<path d="M9.78012 14.5983V7.8396" stroke="#121331" stroke-width="0.52093" stroke-linecap="round" stroke-linejoin="round"/>
<path d="M5.02994 14.5983L5.66175 9.14788C5.74138 8.40369 6.36873 7.8396 7.15831 7.8396H18.9351C19.6428 7.8396 20.2746 8.40369 20.349 9.14788L20.9444 14.5983" stroke="#121331" stroke-width="0.52093" stroke-linecap="round" stroke-linejoin="round"/>
<path d="M5.34693 11.8581L2.33446 11.7361C2.27221 11.7361 2.21247 11.7606 2.16817 11.8043C2.12387 11.8481 2.0986 11.9075 2.09781 11.9698V17.7647C2.09781 17.8275 2.12275 17.8877 2.16712 17.9321C2.21151 17.9765 2.2717 18.0014 2.33446 18.0014H4.63474L5.34693 11.8581Z" fill="#3A3347"/>
<path d="M14.394 16.426H16.2233" stroke="#121331" stroke-width="0.52093" stroke-linecap="round" stroke-linejoin="round"/>
<path d="M29.1311 15.9312C29.0314 15.1647 28.451 14.5984 27.7678 14.5984H26.8376V16.5794H29.2301L29.1311 15.9312Z" fill="#EBE6EF"/>
<g style="mix-blend-mode:multiply" opacity="0.5">
<path d="M8.47554 14.5984H5.03071L4.5455 18.7837C5.62978 18.7874 6.82792 18.7837 7.99033 18.7837L8.47554 14.5984Z" fill="#FFC738"/>
</g>
<path d="M29.9021 21.0661L29.2234 16.5794H26.842V14.5984H5.02994L4.42119 19.8583C4.40379 20.0106 4.41875 20.1648 4.46511 20.3108C4.51148 20.4568 4.58819 20.5915 4.69022 20.7058C4.79224 20.8201 4.91729 20.9115 5.05715 20.9742C5.19701 21.0368 5.34852 21.0692 5.50175 21.0691H29.9021V21.0661Z" stroke="#121331" stroke-width="0.52093" stroke-linecap="round" stroke-linejoin="round"/>
<path d="M29.1311 15.9312C29.0314 15.1647 28.451 14.5984 27.7678 14.5984H26.8376V16.5794H29.2301L29.1311 15.9312Z" stroke="#121331" stroke-width="0.52093" stroke-linecap="round" stroke-linejoin="round"/>
<path d="M4.54473 18.7837L4.42119 19.8583C4.40379 20.0106 4.41875 20.1648 4.46511 20.3108C4.51148 20.4568 4.58819 20.5915 4.69022 20.7058C4.79224 20.8201 4.91729 20.9115 5.05715 20.9742C5.19701 21.0368 5.34852 21.0692 5.50175 21.0691H29.9021L29.5553 18.7867L4.54473 18.7837Z" stroke="#121331" stroke-width="0.52093" stroke-linecap="round" stroke-linejoin="round"/>
<path d="M5.34693 11.8581L2.33446 11.7361C2.27221 11.7361 2.21247 11.7606 2.16817 11.8043C2.12387 11.8481 2.0986 11.9075 2.09781 11.9698V17.7647C2.09781 17.8275 2.12275 17.8877 2.16712 17.9321C2.21151 17.9765 2.2717 18.0014 2.33446 18.0014H4.63474L5.34693 11.8581Z" stroke="#121331" stroke-width="0.52093" stroke-linecap="round" stroke-linejoin="round"/>
<path d="M9.57839 24.1604C11.2886 24.1604 12.675 22.7741 12.675 21.0638C12.675 19.3536 11.2886 17.9673 9.57839 17.9673C7.86825 17.9673 6.48184 19.3536 6.48184 21.0638C6.48184 22.7741 7.86825 24.1604 9.57839 24.1604Z" fill="#3A3347"/>
<g style="mix-blend-mode:multiply" opacity="0.5">
<path d="M9.57691 21.5104C9.48902 21.5103 9.40307 21.4844 9.32991 21.4356C9.25676 21.3869 9.19953 21.3177 9.16552 21.2367C9.13151 21.1557 9.12221 21.0664 9.13873 20.98C9.15525 20.8936 9.19685 20.8141 9.2584 20.7513C9.27909 20.7306 9.30178 20.7119 9.32612 20.6955C9.34978 20.6798 9.37464 20.6661 9.40054 20.6546C9.42733 20.6433 9.45531 20.6348 9.48389 20.6293C9.54156 20.6174 9.60109 20.6174 9.65877 20.6293C9.68735 20.6348 9.71533 20.6433 9.74212 20.6546C9.76802 20.6661 9.79287 20.6798 9.81654 20.6955C9.8408 20.712 9.86342 20.7307 9.88426 20.7513C9.9679 20.8351 10.0149 20.9485 10.0149 21.0669C10.0149 21.1852 9.9679 21.2987 9.88426 21.3824C9.86372 21.4034 9.84102 21.4221 9.81654 21.4382C9.79302 21.4541 9.76809 21.4678 9.74212 21.4792C9.71533 21.4905 9.68735 21.499 9.65877 21.5045C9.63175 21.5091 9.60429 21.511 9.57691 21.5104Z" fill="#3A3347"/>
</g>
<path d="M24.1838 24.1604C25.8939 24.1604 27.2804 22.7741 27.2804 21.0638C27.2804 19.3536 25.8939 17.9673 24.1838 17.9673C22.4736 17.9673 21.0872 19.3536 21.0872 21.0638C21.0872 22.7741 22.4736 24.1604 24.1838 24.1604Z" fill="#3A3347"/>
<g style="mix-blend-mode:multiply" opacity="0.5">
<path d="M24.1883 21.5102H24.1793C24.0609 21.5102 23.9474 21.4632 23.8636 21.3795C23.7799 21.2957 23.7328 21.1821 23.7328 21.0637C23.7328 20.9453 23.7799 20.8317 23.8636 20.7479C23.9474 20.6642 24.0609 20.6172 24.1793 20.6172H24.1883C24.3067 20.6172 24.4203 20.6642 24.504 20.7479C24.5877 20.8317 24.6348 20.9453 24.6348 21.0637C24.6348 21.1821 24.5877 21.2957 24.504 21.3795C24.4203 21.4632 24.3067 21.5102 24.1883 21.5102Z" fill="#3A3347"/>
</g>
<path d="M9.57839 24.1604C11.2886 24.1604 12.675 22.7741 12.675 21.0638C12.675 19.3536 11.2886 17.9673 9.57839 17.9673C7.86825 17.9673 6.48184 19.3536 6.48184 21.0638C6.48184 22.7741 7.86825 24.1604 9.57839 24.1604Z" stroke="#121331" stroke-width="0.52093" stroke-linecap="round" stroke-linejoin="round"/>
<path d="M24.1838 24.1604C25.8939 24.1604 27.2804 22.7741 27.2804 21.0638C27.2804 19.3536 25.8939 17.9673 24.1838 17.9673C22.4736 17.9673 21.0872 19.3536 21.0872 21.0638C21.0872 22.7741 22.4736 24.1604 24.1838 24.1604Z" stroke="#121331" stroke-width="0.52093" stroke-linecap="round" stroke-linejoin="round"/>
</svg>
